<?xml version="1.0" encoding="utf-8"?>
<!DOCTYPE svg PUBLIC "-//W3C//DTD SVG 1.1//EN" "http://www.w3.org/Graphics/SVG/1.1/DTD/svg11.dtd">
<svg version="1.1" id="default-layer" xmlns="http://www.w3.org/2000/svg" xmlns:xlink="http://www.w3.org/1999/xlink" x="0px"
	 y="0px" viewBox="0 0 300 300" style="enable-background:new 0 0 300 300;" xml:space="preserve">
<style type="text/css">
	.st0{fill:#333333;}
</style>
<path class="st0" d="M149.998,300C67.289,300,0,232.715,0,150C0,67.292,67.289,0,149.998,0C232.72,0,300,67.292,300,150
	C300,232.715,232.72,300,149.998,300z M149.998,19.078C77.808,19.078,19.072,77.803,19.072,150
	c0,72.195,58.735,130.926,130.926,130.926c72.204,0,130.938-58.731,130.938-130.926C280.937,77.803,222.203,19.078,149.998,19.078z
	 M167.471,75.932c-7.328-14.839-11.804-29.269-14.063-37.679v106.242c3.711,1.391,6.365,4.939,6.365,9.131
	c0,5.397-4.378,9.77-9.771,9.77c-5.399,0-9.771-4.375-9.771-9.77c0-4.392,2.919-8.063,6.913-9.298V38.141
	c-2.252,8.388-6.731,22.888-14.094,37.791c-11.482,23.224-25.795,43.711-25.795,43.711l9.154,125.264c0,0,8.699,9.707,33.835,9.721
	h0.035c25.134-0.014,33.838-9.721,33.838-9.721l9.153-125.264C193.263,119.643,178.95,99.158,167.471,75.932L167.471,75.932z"/>
</svg>
