<svg xmlns="http://www.w3.org/2000/svg" viewBox="0 0 300 300"><path d="M149.998 300C67.289 300 0 232.715 0 150 0 67.292 67.289 0 149.998 0 232.72 0 300 67.292 300 150c0 82.715-67.28 150-150.002 150zm0-280.922C77.808 19.078 19.072 77.803 19.072 150c0 72.195 58.735 130.926 130.926 130.926 72.204 0 130.938-58.731 130.938-130.926.001-72.197-58.733-130.922-130.938-130.922zm17.473 56.854c-7.328-14.839-11.804-29.269-14.063-37.679v106.242c3.711 1.391 6.365 4.939 6.365 9.131 0 5.397-4.378 9.77-9.771 9.77a9.77 9.77 0 0 1-9.771-9.77c0-4.392 2.919-8.063 6.913-9.298V38.141c-2.252 8.388-6.731 22.888-14.094 37.791-11.482 23.224-25.795 43.711-25.795 43.711l9.154 125.264s8.699 9.707 33.835 9.721h.035c25.134-.014 33.838-9.721 33.838-9.721l9.153-125.264c-.007 0-14.32-20.485-25.799-43.711z" fill="#333"/></svg>